<mxfile host="app.diagrams.net" modified="2023-09-05T05:49:41.496Z" agent="Mozilla/5.0 (Windows NT 10.0; Win64; x64; rv:109.0) Gecko/20100101 Firefox/117.0" etag="AV8iONWRpyXTFZnlXsD7" version="21.7.2" type="github">
  <diagram name="第 1 页" id="A8AywbBz2KXiVtl9Fbw1">
    <mxGraphModel dx="1434" dy="774" grid="1" gridSize="10" guides="1" tooltips="1" connect="1" arrows="1" fold="1" page="1" pageScale="1" pageWidth="827" pageHeight="1169" math="0" shadow="0">
      <root>
        <mxCell id="0" />
        <mxCell id="1" parent="0" />
        <mxCell id="aWDEB9A05pich5kuT-3C-1" value="线程1" style="rounded=0;whiteSpace=wrap;html=1;fillColor=#e1d5e7;strokeColor=#9673a6;" parent="1" vertex="1">
          <mxGeometry x="140" y="120" width="190" height="90" as="geometry" />
        </mxCell>
        <mxCell id="aWDEB9A05pich5kuT-3C-2" value="线程2" style="rounded=0;whiteSpace=wrap;html=1;fillColor=#e1d5e7;strokeColor=#9673a6;" parent="1" vertex="1">
          <mxGeometry x="510" y="120" width="190" height="90" as="geometry" />
        </mxCell>
        <mxCell id="aWDEB9A05pich5kuT-3C-3" value="&lt;div&gt;线程内存1&lt;/div&gt;&lt;div&gt;工作内存&lt;br&gt;&lt;/div&gt;&lt;div&gt;data0&lt;br&gt;&lt;/div&gt;" style="rounded=1;whiteSpace=wrap;html=1;fillColor=#b1ddf0;strokeColor=#10739e;" parent="1" vertex="1">
          <mxGeometry x="175" y="340" width="120" height="60" as="geometry" />
        </mxCell>
        <mxCell id="aWDEB9A05pich5kuT-3C-4" value="&lt;div&gt;线程内存2&lt;/div&gt;&lt;div&gt;工作内存&lt;br&gt;&lt;/div&gt;&lt;div&gt;data0&lt;br&gt;&lt;/div&gt;" style="rounded=1;whiteSpace=wrap;html=1;fillColor=#b1ddf0;strokeColor=#10739e;" parent="1" vertex="1">
          <mxGeometry x="530" y="340" width="120" height="60" as="geometry" />
        </mxCell>
        <mxCell id="aWDEB9A05pich5kuT-3C-5" value="共享&lt;div&gt;主内存&lt;/div&gt;&lt;div&gt;data0&lt;br&gt;&lt;/div&gt;" style="shape=ext;double=1;rounded=0;whiteSpace=wrap;html=1;fillColor=#bac8d3;strokeColor=#23445d;" parent="1" vertex="1">
          <mxGeometry x="340" y="540" width="146" height="80" as="geometry" />
        </mxCell>
        <mxCell id="aWDEB9A05pich5kuT-3C-6" value="" style="edgeStyle=elbowEdgeStyle;elbow=vertical;endArrow=classic;html=1;curved=0;rounded=0;endSize=8;startSize=8;entryX=0.5;entryY=1;entryDx=0;entryDy=0;exitX=0.644;exitY=-0.037;exitDx=0;exitDy=0;exitPerimeter=0;" parent="1" source="aWDEB9A05pich5kuT-3C-5" target="aWDEB9A05pich5kuT-3C-4" edge="1">
          <mxGeometry width="50" height="50" relative="1" as="geometry">
            <mxPoint x="450" y="520" as="sourcePoint" />
            <mxPoint x="500" y="470" as="targetPoint" />
          </mxGeometry>
        </mxCell>
        <mxCell id="aWDEB9A05pich5kuT-3C-7" value="" style="edgeStyle=elbowEdgeStyle;elbow=vertical;endArrow=classic;html=1;curved=0;rounded=0;endSize=8;startSize=8;entryX=0.5;entryY=1;entryDx=0;entryDy=0;exitX=0.25;exitY=0;exitDx=0;exitDy=0;" parent="1" source="aWDEB9A05pich5kuT-3C-5" target="aWDEB9A05pich5kuT-3C-3" edge="1">
          <mxGeometry width="50" height="50" relative="1" as="geometry">
            <mxPoint x="380" y="530" as="sourcePoint" />
            <mxPoint x="446" y="410" as="targetPoint" />
          </mxGeometry>
        </mxCell>
        <mxCell id="aWDEB9A05pich5kuT-3C-8" value="" style="endArrow=classic;html=1;rounded=0;exitX=0.5;exitY=0;exitDx=0;exitDy=0;entryX=0.5;entryY=1;entryDx=0;entryDy=0;" parent="1" source="aWDEB9A05pich5kuT-3C-3" target="aWDEB9A05pich5kuT-3C-1" edge="1">
          <mxGeometry width="50" height="50" relative="1" as="geometry">
            <mxPoint x="390" y="430" as="sourcePoint" />
            <mxPoint x="440" y="380" as="targetPoint" />
          </mxGeometry>
        </mxCell>
        <mxCell id="aWDEB9A05pich5kuT-3C-9" value="" style="endArrow=classic;html=1;rounded=0;exitX=0.5;exitY=0;exitDx=0;exitDy=0;entryX=0.5;entryY=1;entryDx=0;entryDy=0;" parent="1" edge="1">
          <mxGeometry width="50" height="50" relative="1" as="geometry">
            <mxPoint x="589.5" y="340" as="sourcePoint" />
            <mxPoint x="589.5" y="210" as="targetPoint" />
          </mxGeometry>
        </mxCell>
      </root>
    </mxGraphModel>
  </diagram>
</mxfile>
